<svg xmlns="http://www.w3.org/2000/svg" xml:space="preserve" width="2000" height="1500" data-id="lg_JL5RJdMwZPjRwouR1K" data-version="1" viewBox="0 0 2000 1500"><path fill="#fff" stroke="transparent" d="M0 0h2000v1500H0z"/><g data-padding="20"><g transform="translate(-1651.786 -1251.658)scale(2.5829)"><rect width="386.629" height="74.58" x="433.062" y="337.673" fill="none" rx="0" ry="0" transform="translate(487.19 364.84)"/><path d="M944.836 760.533h-6.27v-44.22h-14.03v-5.28h34.16v5.28h-13.86Zm31.02-5.28h24.75l-.66 5.28h-30.36l.49-6.6v-35.97l-.99-6.93h30.36v5.28h-23.92l.66 6.27v8.75h20.95v4.78h-20.95v13.2Zm43.16-5.94-.33 5.94h24.09l-.66 5.28h-29.86l.66-6.6v-35.97l-.99-6.93 7.09-.66Zm37.06 11.22h-6.07l15.57-42.9 1.16-6.6 5.87-.66 18.09 50.16h-6.6l-4.89-14.85h-17.65Zm15.64-35.64-1.48-10.56-1.49 10.56-5.58 15.84h14.43Zm33.11 24.42-.33 5.94h24.09l-.66 5.28h-29.86l.66-6.6v-35.97l-.99-6.93 7.09-.66Zm37.06 11.22h-6.07l15.57-42.9 1.16-6.6 5.87-.66 18.09 50.16h-6.6l-4.89-14.85h-17.65Zm15.64-35.64-1.48-10.56-1.49 10.56-5.58 15.84h14.43Zm36.03 15.38h-2.97v20.26h-6.04v-42.57l-1.16-6.6q2.21-.26 4.87-.49t5.53-.23q4.16 0 7.69.87 3.53.88 6.1 2.59 2.58 1.72 4.03 4.27 1.45 2.56 1.45 5.9 0 3.46-1.19 6.1t-3.23 4.5q-2.05 1.87-4.85 3.04-2.81 1.17-6.01 1.73l4.69 1.32 13.3 19.57h-7.36l-13.3-19.63q-.36-.46-.83-.55-.46-.08-.72-.08m-3.63-24.75.66 7.16v12.61h3.89q3 0 5.31-.84 2.31-.85 3.9-2.28 1.58-1.44 2.41-3.33.82-1.9.82-4.05 0-1.88-.53-3.33-.52-1.45-1.45-2.51-.92-1.05-2.14-1.8-1.22-.74-2.59-1.17t-2.81-.62q-1.43-.2-2.79-.2-1.38 0-2.49.08-1.1.08-2.19.28m68.68 45.01h-5.94v-29.73l1.95-16.43-.17-.04-5.08 15.81-5.71 13.89h-3.3l-5.81-13.86-5.41-15.84-.2.04 2.45 16.43v29.73h-5.94v-42.57l-.93-6.93 7.06-.66 8.12 18.81 2.34 8.25 2.28-8.25 7.46-18.15 6.83-.66Zm11.22-3.1 3-4.95q.66.43 1.74.97 1.07.55 2.39 1.04 1.32.5 2.8.83 1.49.33 3.01.33 2.04 0 4.1-.51 2.07-.51 3.73-1.59 1.67-1.07 2.71-2.72t1.04-3.93q0-2.14-.99-3.76t-2.61-2.9q-1.61-1.29-3.69-2.35-2.08-1.05-4.24-2.11-2.17-1.05-4.24-2.19-2.08-1.14-3.7-2.59t-2.61-3.3-.99-4.33q0-3.2 1.36-5.61 1.35-2.4 3.53-4.02 2.17-1.62 4.95-2.44 2.77-.83 5.61-.83 7.03 0 12.97 3.96l-3.21 4.06q-2.24-1.32-4.3-1.95-2.06-.62-4.61-.62-1.78 0-3.58.36-1.79.36-3.23 1.17t-2.34 2.11q-.91 1.31-.91 3.19 0 1.85 1.01 3.2 1 1.35 2.64 2.42 1.63 1.08 3.71 2.02t4.27 1.94q2.2 1.01 4.28 2.21 2.07 1.21 3.71 2.84 1.63 1.64 2.64 3.83 1 2.2 1 5.17 0 3.69-1.5 6.45-1.5 2.75-3.96 4.58-2.46 1.84-5.62 2.76-3.17.92-6.47.92-2.11 0-3.93-.24-1.81-.25-3.45-.71-1.63-.47-3.12-1.14-1.48-.68-2.9-1.57"/><path stroke="#000" stroke-width="3.36" d="M880.866 698.75v152.426"/><path d="M823.82 764.253c1.599-.492 3.075-.86 4.674-.86.615 0 1.107-.124 1.722-.124.492 0 .86 0 1.23.123v-32.226a4.7 4.7 0 0 0-2.83-4.305l-37.76-16.605a5.1 5.1 0 0 0-3.813 0l-37.761 16.605a4.7 4.7 0 0 0-2.83 4.305v34.563c0 23.493 19.066 42.558 42.559 42.558 8.24 0 15.99-2.337 22.509-6.519-.123-.246-.123-.492-.246-.738-1.722-2.214-2.46-4.797-2.706-6.026-.123-.493-.37-1.353-.492-2.338-4.06 2.83-8.856 4.92-14.022 5.659l-.123-76.384 28.167 12.3v30.627c.492-.245 1.107-.491 1.722-.615m-39.483-42.435v7.75l-5.29-5.413Zm-12.177 5.412 12.177 12.423v9.717l-18.82-19.31Zm-16.236 7.012 2.706-1.23 25.83 26.322v9.716l-28.536-28.904Zm.246 36.039 27.552 28.043a33.33 33.33 0 0 1-27.552-28.043m-.246-10.332v-9.717l28.536 29.15v9.718Zm45.756 68.019v-4.305c0-2.83 1.353-5.659 3.567-7.38 6.642-5.166 13.284-8.488 14.76-9.226.123-.123.246-.245.246-.492v-4.058c-1.107-1.846-1.6-3.813-1.845-5.536-.615 0-1.476-.983-2.337-4.058-1.23-4.305.123-4.92 1.107-4.798-.861-2.214-.861-4.428-.246-6.519.615-2.46 1.845-4.305 3.32-5.78.985-.985 1.969-1.846 3.076-2.584q1.292-.922 2.952-1.476c.86-.246 1.722-.492 2.706-.492 2.952-.245 5.166.493 6.765 1.476 2.46 1.353 3.32 3.075 3.32 3.075s6.028.37 3.445 13.161c.86.247 1.353 1.353.492 4.798-1.107 4.059-2.214 4.305-2.83 3.935-.245 1.476-.614 2.953-1.352 4.428v4.798c0 .245.123.369.246.492 1.476.738 8.118 4.058 14.76 9.224 2.214 1.723 3.567 4.552 3.567 7.38v4.306c0 .983-.738 1.721-1.722 1.721h-52.275c-.984-.369-1.722-1.107-1.722-2.09"/><rect width="386.571" height="36.16" x="433.09" y="356.883" fill="none" rx="0" ry="0" transform="translate(487.16 427.82)"/><path d="m922.666 789.493 6.04 11.45 6.08-11.45h2.86l-7.61 13.98v8.86h-2.65v-8.73l-7.63-14.11Zm32.47 14.25q0 2.11-.55 3.76-.54 1.66-1.57 2.8t-2.5 1.74q-1.46.61-3.3.61-1.72 0-3.15-.61-1.43-.6-2.47-1.74t-1.61-2.8q-.57-1.65-.57-3.76 0-2.81.96-4.79.95-1.98 2.72-3.02 1.78-1.03 4.23-1.03 2.34 0 4.1 1.04 1.76 1.05 2.74 3.03.97 1.97.97 4.77m-13.03 0q0 2.06.55 3.58.54 1.51 1.68 2.34 1.15.83 2.94.83 1.78 0 2.93-.83t1.7-2.34q.54-1.52.54-3.58 0-2.05-.54-3.54-.55-1.49-1.69-2.3-1.14-.82-2.95-.82-2.68 0-3.92 1.77-1.24 1.76-1.24 4.89m29.05-8.53h2.61v17.12h-2.13l-.37-2.4h-.14q-.54.89-1.38 1.5t-1.9.91q-1.05.31-2.24.31-2.03 0-3.41-.66-1.37-.66-2.07-2.03-.69-1.38-.69-3.53v-11.22h2.62v11.03q0 2.14.97 3.19.97 1.06 2.96 1.06 1.9 0 3.03-.72 1.14-.72 1.64-2.12t.5-3.43Zm15.87-.31q.52 0 1.08.05t1 .15l-.33 2.4q-.42-.1-.94-.17-.51-.06-.96-.06-1.04 0-1.95.41-.91.42-1.6 1.19-.69.78-1.08 1.86-.39 1.09-.39 2.42v9.18h-2.61v-17.12h2.16l.28 3.15h.11q.53-.95 1.28-1.74t1.74-1.26q.99-.46 2.21-.46m26.89 11.35q0 2.04-1 3.47-1.01 1.43-2.83 2.18-1.81.75-4.26.75-1.3 0-2.45-.13-1.16-.12-2.13-.36-.97-.23-1.7-.58v-2.54q1.17.48 2.86.89 1.68.42 3.53.42 1.72 0 2.9-.46 1.19-.46 1.81-1.33t.62-2.09q0-1.17-.52-1.96-.51-.79-1.71-1.44-1.2-.64-3.26-1.38-1.45-.51-2.56-1.13t-1.86-1.4-1.13-1.81q-.39-1.03-.39-2.36 0-1.83.93-3.13.93-1.31 2.58-2 1.65-.7 3.79-.7 1.83 0 3.38.34 1.56.35 2.86.93l-.83 2.28q-1.24-.52-2.62-.86-1.38-.35-2.85-.35t-2.48.43-1.54 1.22q-.53.78-.53 1.85 0 1.21.51 2 .51.8 1.63 1.42 1.11.62 2.96 1.29 2.01.73 3.42 1.55 1.4.82 2.14 2 .73 1.18.73 2.99m10.68-11.32q3.07 0 4.55 1.37 1.49 1.38 1.49 4.39v11.64h-1.89l-.5-2.53h-.13q-.72.94-1.5 1.57t-1.8.95q-1.03.33-2.51.33-1.56 0-2.78-.55-1.21-.55-1.9-1.66-.7-1.11-.7-2.81 0-2.56 2.03-3.94 2.04-1.37 6.19-1.5l2.95-.12v-1.05q0-2.22-.95-3.11t-2.69-.89q-1.34 0-2.56.39t-2.31.92l-.8-1.97q1.16-.59 2.66-1.01t3.15-.42m3.47 10.54v-1.57l-2.61.1q-3.2.13-4.51 1.05t-1.31 2.61q0 1.47.89 2.17.89.71 2.36.71 2.28 0 3.73-1.27t1.45-3.8m15.53-10.26v2.03h-4.26v15.09h-2.59v-15.09h-3.04v-1.25l3.04-.86v-1.14q0-2.16.64-3.51t1.86-1.99q1.21-.64 2.96-.64.99 0 1.81.17t1.44.39l-.67 2.05q-.53-.17-1.19-.32-.67-.15-1.35-.15-1.49 0-2.2.96t-.71 3.01v1.25Zm9.73-.31q2.19 0 3.75.96 1.56.97 2.39 2.71.83 1.75.83 4.08v1.6h-11.83q.05 3.02 1.5 4.6t4.09 1.58q1.63 0 2.88-.3t2.59-.88v2.29q-1.29.57-2.57.84-1.27.27-3.01.27-2.46 0-4.3-1.01t-2.85-2.96q-1.02-1.96-1.02-4.78 0-2.77.93-4.79.93-2.03 2.63-3.12 1.69-1.09 3.99-1.09m-.03 2.12q-2.08 0-3.31 1.36-1.24 1.36-1.47 3.8h9.06q-.02-1.53-.48-2.7-.46-1.16-1.4-1.81-.93-.65-2.4-.65m16.95 13.49q.64 0 1.31-.11t1.09-.26v2.01q-.45.2-1.26.34-.8.15-1.57.15-1.36 0-2.47-.48-1.1-.48-1.77-1.62-.66-1.14-.66-3.15v-10.16h-2.44v-1.27l2.45-1.01 1.03-3.72h1.57v3.97h5.01v2.03h-5.01v10.08q0 1.61.74 2.4.74.8 1.98.8m10.02 1.85-6.86-17.15h2.78l3.78 9.94q.33.87.61 1.67.28.81.5 1.54.22.74.34 1.43h.11q.22-.79.63-2.06.4-1.27.87-2.6l3.58-9.92h2.8l-7.46 19.64q-.59 1.58-1.38 2.75t-1.91 1.8q-1.13.64-2.72.64-.74 0-1.3-.09t-.97-.2v-2.07q.35.07.84.14.49.06 1.02.06.97 0 1.68-.37.71-.36 1.23-1.07.51-.7.89-1.67Zm12.06-3.75h2.78l.2.36q-.28 1.14-.71 2.44t-.93 2.6q-.51 1.31-1.03 2.45h-1.94q.33-1.25.64-2.64.32-1.38.58-2.73.25-1.35.41-2.48m36.62-7.73q0 2.64-.67 4.8-.68 2.17-2 3.72-1.32 1.56-3.27 2.4-1.95.85-4.53.85-2.66 0-4.63-.85-1.98-.84-3.28-2.4-1.31-1.57-1.96-3.74t-.65-4.81q0-3.5 1.16-6.14t3.51-4.11 5.9-1.47q3.39 0 5.71 1.45 2.32 1.46 3.51 4.09 1.2 2.63 1.2 6.21m-18.19 0q0 2.91.83 5.03.83 2.13 2.54 3.28 1.71 1.16 4.35 1.16 2.66 0 4.35-1.16 1.7-1.15 2.51-3.28.81-2.12.81-5.03 0-4.42-1.85-6.91-1.85-2.5-5.77-2.5-2.66 0-4.38 1.14t-2.55 3.25q-.84 2.1-.84 5.02m34.4-5.67h2.61v17.12h-2.13l-.37-2.4h-.14q-.54.89-1.38 1.5t-1.9.91q-1.05.31-2.24.31-2.03 0-3.41-.66-1.37-.66-2.07-2.03-.69-1.38-.69-3.53v-11.22h2.62v11.03q0 2.14.97 3.19.97 1.06 2.96 1.06 1.9 0 3.03-.72 1.14-.72 1.64-2.12t.5-3.43Zm15.87-.31q.52 0 1.08.05t1 .15l-.33 2.4q-.42-.1-.94-.17-.51-.06-.96-.06-1.04 0-1.95.41-.91.42-1.6 1.19-.69.78-1.08 1.86-.39 1.09-.39 2.42v9.18h-2.61v-17.12h2.16l.28 3.15h.11q.53-.95 1.28-1.74t1.74-1.26q.99-.46 2.21-.46m14.01-5.41h5.97q4.42 0 6.46 1.73 2.04 1.72 2.04 4.94 0 1.45-.48 2.76-.47 1.3-1.53 2.3-1.07.99-2.79 1.56-1.73.57-4.23.57h-2.78v8.98h-2.66Zm5.72 2.26h-3.06v9.32h2.48q2.19 0 3.65-.47t2.2-1.53q.73-1.05.73-2.8 0-2.28-1.45-3.4-1.46-1.12-4.55-1.12m20.91 3.15q.52 0 1.08.05t1 .15l-.33 2.4q-.42-.1-.93-.17-.52-.06-.97-.06-1.03 0-1.95.41-.91.42-1.6 1.19-.69.78-1.08 1.86-.39 1.09-.39 2.42v9.18h-2.61v-17.12h2.16l.28 3.15h.11q.53-.95 1.28-1.74t1.74-1.26q.99-.46 2.21-.46m5.3.3h2.59v17.12h-2.59Zm1.33-6.41q.64 0 1.1.42.46.41.46 1.28 0 .86-.46 1.29-.46.42-1.1.42-.67 0-1.12-.42-.44-.43-.44-1.29 0-.87.44-1.28.45-.42 1.12-.42m21.51 14.95q0 2.11-.54 3.76-.55 1.66-1.58 2.8t-2.49 1.74q-1.46.61-3.31.61-1.72 0-3.15-.61-1.43-.6-2.47-1.74-1.03-1.14-1.6-2.8-.58-1.65-.58-3.76 0-2.81.96-4.79.95-1.98 2.72-3.02 1.78-1.03 4.23-1.03 2.34 0 4.1 1.04 1.76 1.05 2.74 3.03.97 1.97.97 4.77m-13.03 0q0 2.06.55 3.58.55 1.51 1.69 2.34t2.93.83 2.93-.83q1.15-.83 1.7-2.34.55-1.52.55-3.58 0-2.05-.55-3.54t-1.69-2.3q-1.14-.82-2.95-.82-2.67 0-3.92 1.77-1.24 1.76-1.24 4.89m25.3-8.84q.51 0 1.08.05.56.05 1 .15l-.33 2.4q-.42-.1-.94-.17-.51-.06-.97-.06-1.03 0-1.94.41-.92.42-1.6 1.19-.69.78-1.08 1.86-.39 1.09-.39 2.42v9.18h-2.61v-17.12h2.15l.29 3.15h.1q.54-.95 1.29-1.74t1.74-1.26q.99-.46 2.21-.46m5.3.3h2.59v17.12h-2.59Zm1.32-6.41q.64 0 1.11.42.46.41.46 1.28 0 .86-.46 1.29-.47.42-1.11.42-.67 0-1.11-.42-.45-.43-.45-1.29 0-.87.45-1.28.44-.42 1.11-.42m12.3 21.72q.64 0 1.31-.11t1.09-.26v2.01q-.45.2-1.26.34-.8.15-1.57.15-1.36 0-2.47-.48-1.1-.48-1.77-1.62-.66-1.14-.66-3.15v-10.16h-2.44v-1.27l2.45-1.01 1.03-3.72h1.57v3.97h5.01v2.03h-5.01v10.08q0 1.61.74 2.4.74.8 1.98.8m10.02 1.85-6.86-17.15h2.78l3.78 9.94q.33.87.61 1.67.28.81.5 1.54.22.74.34 1.43h.11q.22-.79.63-2.06.4-1.27.87-2.6l3.58-9.92h2.8l-7.46 19.64q-.59 1.58-1.38 2.75t-1.91 1.8q-1.13.64-2.72.64-.74 0-1.3-.09t-.97-.2v-2.07q.35.07.84.14.49.06 1.02.06.97 0 1.68-.37.71-.36 1.23-1.07.51-.7.89-1.67Z"/></g><path fill="transparent" stroke="transparent" stroke-width="2.679" d="M250 546.429h1500V953.57H250z"/></g></svg>